{"title":"The Block - S12E26 - Tassie Road Trip Challenge","uid":15961824,"size":378446397,"categoryP":"video","categoryS":"tv_shows","magnet":"?xt=urn:btih:e57a40290adf1551a0b6220f1d3cd606f57a4562&amp;dn=The+Block+-+S12E26+-+Tassie+Road+Trip+Challenge&amp;tr=udp%3A%2F%2Ftracker.leechers-paradise.org%3A6969&amp;tr=udp%3A%2F%2Fzer0day.ch%3A1337&amp;tr=udp%3A%2F%2Fopen.demonii.com%3A1337&amp;tr=udp%3A%2F%2Ftracker.coppersurfer.tk%3A6969&amp;tr=udp%3A%2F%2Fexodus.desync.com%3A6969","seeders":21,"leechers":17,"uploader":"Bullrout","files":1,"time":1475671927,"description":"The Block - S12E26 - Tassie Road Trip Challenge\r\n\r\nThe teams arrive in Devonport after a night on the Spirit of Tasmania. They meet Scotty and Shelley for a challenge where they must design a table for their terraces. It's an opportunity to win some rare and expensive Tasmanian timber\r\n\r\nComplete name                            : The Block - S12E26 - Tassie Road Trip Challenge.mp4\r\nFormat                                   : MPEG-4\r\nFormat profile                           : Base Media / Version 2\r\nCodec ID                                 : mp42 (mp42/isom/avc1)\r\nFile size                                : 361 MiB\r\nDuration                                 : 45 min 37 s\r\nOverall bit rate mode                    : Variable\r\nOverall bit rate                         : 1 106 kb/s\r\n\r\nVideo\r\nID                                       : 2\r\nFormat                                   : AVC\r\nFormat/Info                              : Advanced Video Codec\r\nFormat profile                           :   \r\nFormat settings, CABAC                   : Yes\r\nFormat settings, ReFrames                : 3 frames\r\nCodec ID                                 : avc1\r\nCodec ID/Info                            : Advanced Video Coding\r\nDuration                                 : 45 min 37 s\r\nBit rate mode                            : Variable\r\nBit rate                                 : 974 kb/s\r\nMaximum bit rate                         : 1 000 kb/s\r\nWidth                                    : 720 pixels\r\nHeight                                   : 404 pixels\r\nDisplay aspect ratio                     : 16:9\r\nOriginal display aspect ratio            : 16:9\r\nFrame rate mode                          : Constant\r\nFrame rate                               : 25.000 FPS\r\nStandard                                 : PAL\r\nColor space                              : YUV\r\nChroma subsampling                       : 4:2:0\r\nBit depth                                : 8 bits\r\nScan type                                : Progressive\r\nBits/(Pixel*Frame)                       : 0.134\r\nStream size                              : 318 MiB (88%)\r\nWriting library                          : x264 core 112\r\nColor range                              : Limited\r\nColor primaries                          : BT.601 PAL\r\nTransfer characteristics                 : BT.470 System B, BT.470 System G\r\nMatrix coefficients                      : BT.601\r\n\r\nAudio\r\nID                                       : 1\r\nFormat                                   : AAC\r\nFormat/Info                              : Advanced Audio Codec\r\nFormat profile                           : LC\r\nCodec ID                                 : 40\r\nDuration                                 : 45 min 37 s\r\nBit rate mode                            : Variable\r\nBit rate                                 : 128 kb/s\r\nMaximum bit rate                         : 576 kb/s\r\nChannel(s)                               : 2 channels\r\nChannel positions                        : Front: L R\r\nSampling rate                            : 48.0 kHz\r\nFrame rate                               : 46.875 FPS (1024 spf)\r\nCompression mode                         : Lossy\r\nStream size                              : 41.8 MiB (12%)","torrent":{"xt":"urn:btih:e57a40290adf1551a0b6220f1d3cd606f57a4562","amp;dn":"The+Block+-+S12E26+-+Tassie+Road+Trip+Challenge","amp;tr":["udp%3A%2F%2Ftracker.leechers-paradise.org%3A6969","udp%3A%2F%2Fzer0day.ch%3A1337","udp%3A%2F%2Fopen.demonii.com%3A1337","udp%3A%2F%2Ftracker.coppersurfer.tk%3A6969","udp%3A%2F%2Fexodus.desync.com%3A6969"],"infoHash":"e57a40290adf1551a0b6220f1d3cd606f57a4562","infoHashBuffer":{"type":"Buffer","data":[229,122,64,41,10,223,21,81,160,182,34,15,29,60,214,6,245,122,69,98]},"announce":[],"urlList":[]}}